<svg id="Layer_1" data-name="Layer 1" xmlns="http://www.w3.org/2000/svg" viewBox="0 0 493.04 111.2"><defs><style>.cls-1{fill:none;stroke:#bf5630;stroke-miterlimit:10;stroke-width:5px;}.cls-2{fill:#3d464f;}</style></defs><path class="cls-1" d="M129.43,328.07c0-1,.28-1.11,1.26-1.82,4.62-3.21,7.42-4.33,12.18-6.71,1.12-.56,1.4.55,1.82,1.4,1.54,3.08,13.58,19,20.16,19,1.12,0,2.38-.84,2.38-3.78,0-19.31-8.54-24.08-19.32-29.11-8.12-3.79-15.82-10.08-15.82-31.23,0-8.81,21.14-23.65,26.32-23.65,5.88,0,17.92,17.08,25.06,24.22,1,1,.42,1.39-.56,2-4.48,2.52-8,5.18-11.2,5.74-2.94.56-5-.7-7.14-3.79-5.6-8.11-10.36-13.43-14.14-13.43-1.26,0-2.38,1-2.38,3.91,0,13.44,4.48,20,14.56,24.79,8,3.78,22,9.52,22,33.88,0,6.44-19.46,24.64-24.64,24.64C150.29,354.12,129.43,334.38,129.43,328.07Z" transform="translate(-55 -245.63)"/><path class="cls-1" d="M279,271.52v78.11c0,1.54,0,2.94-2,2.8a112.17,112.17,0,0,0-13.72-.14c-2,.14-2-1.12-2-2.66V276.7c0-5-11.06-11.35-14.28-11.35-1.26,0-1.82.71-1.82,2v82.32c0,1.54,0,2.94-2,2.8a112.17,112.17,0,0,0-13.72-.14c-2,.14-2-1.12-2-2.66V276.7c0-5-11.06-11.35-14.28-11.35-1.26,0-1.82.71-1.82,2v82.32c0,1.54,0,2.94-2,2.8a112.17,112.17,0,0,0-13.72-.14c-2,.14-2-1.12-2-2.66V270.12c0-4.34-.84-7-3.78-9.38-.84-.7-.7-1.54.7-2a56.41,56.41,0,0,0,13-5.88c1-.56,1.4-.14,2.38,1,2,2.24,2.94,4.34,3.78,4.34,1.12,0,9.38-5.74,12.6-5.74,2,0,7.7,3.08,12.88,6.85,1.4,1.13,2.38,2,3.08,2,1.12,0,13.86-8.82,17.78-8.82S279,264.38,279,271.52Z" transform="translate(-55 -245.63)"/><path class="cls-1" d="M293.23,333.11V274.74c0-6.45,21.14-22.54,26.32-22.54,5.88,0,27.86,14.7,27.86,21v58.37c0,6.44-21.14,22.55-26.32,22.55C315.21,354.12,293.23,339.42,293.23,333.11Zm36.54,5.6V279.22c0-3.5-14.7-13.58-17.08-13.58-1.12,0-1.82.84-1.82,2.38v59.49c0,3.5,14.7,13.58,17.22,13.58C329.07,341.09,329.77,340.25,329.77,338.71Z" transform="translate(-55 -245.63)"/><path class="cls-1" d="M417.83,348.09c-3.22,2.66-7.42,3.79-11.76,6-1.12.55-2,0-2.66-1.13-4.48-7.14-10.92-32.61-13.86-44.38-.28-1.11-1.12-1.11-1.68-.28l-6.72,10.78a4.78,4.78,0,0,0-1.26,2.94v27.58c0,1.54,0,2.94-2,2.8a112.17,112.17,0,0,0-13.72-.14c-2,.14-2-1.12-2-2.66V270.12c0-4.34-.84-7-3.78-9.38-.84-.7-.7-1.54.7-2,4.48-1.54,7.28-2.95,13.3-5.88,1-.56,1.4-.14,2.38,1,4.06,4.62,5,6.44,5,11.47V298c0,1.12.84,2.37,1.4,1.4l14.84-25.63c4.2-7.27,4.76-13.85,2-17.92-.56-.83-1-2,.42-2,3.78,0,11.34.84,15.12-.14,1.12-.28,2.24-.28,2.38,1,.42,4.2-2.66,12.59-7.56,20.57l-7.28,11.63a6.12,6.12,0,0,0-.7,5.18c3.22,12.59,13.16,45.49,18.48,52.21C420.35,346.13,419.23,347,417.83,348.09Z" transform="translate(-55 -245.63)"/><path class="cls-1" d="M444.71,256.68v92.95c0,1.54,0,2.94-2,2.8a112.17,112.17,0,0,0-13.72-.14c-2,.14-2-1.12-2-2.66V256.68c0-1.54,0-2.8,2-2.66a112.17,112.17,0,0,0,13.72-.14C444.71,253.74,444.71,255.14,444.71,256.68Z" transform="translate(-55 -245.63)"/><path class="cls-1" d="M513.17,271.52v78.11c0,1.54,0,2.94-2,2.8a112.17,112.17,0,0,0-13.72-.14c-2,.14-2-1.12-2-2.66V276.7c0-5-11.06-11.35-14.28-11.35-1.26,0-1.82.71-1.82,2v82.32c0,1.54,0,2.94-2,2.8a112.17,112.17,0,0,0-13.72-.14c-2,.14-2-1.12-2-2.66V270.12c0-4.34-.84-7-3.78-9.38-.84-.7-.7-1.54.7-2a56.41,56.41,0,0,0,13-5.88c1-.56,1.4-.14,2.38,1,2,2.24,2.94,4.34,3.78,4.34,1.12,0,9.38-5.74,12.6-5.74C494.41,252.48,513.17,264.38,513.17,271.52Z" transform="translate(-55 -245.63)"/><path class="cls-1" d="M531.23,285.1c1.26-2.66,6-8,4.9-11.35-1.4-4.33-5.6-2.51-6.44-2.37s-2.52-.14-2.66-1.55c-.42-3.91.14-9.51-.28-13.71a1.67,1.67,0,0,1,1.54-2,99.13,99.13,0,0,0,12.88-.56,2.69,2.69,0,0,1,2.66,1.12c2.1,4.06,1.68,7,1.68,11.06,0,11.47-5.18,23.1-12.46,23.1C531.23,288.88,530.53,286.5,531.23,285.1Z" transform="translate(-55 -245.63)"/><path class="cls-2" d="M109.21,354.2H68.92C64.68,354.2,55,340.28,55,336.87c0-3.87,12.26-13.09,14.66-16.69.37-.55.83.1,1.2.83,1.19,2.4,2,4.43,3.22,7.47.92,2.3,0,3.6-1.38,4.79-1.75,1.57-6.18,5.17-8,8.12-.37.64.55,1.19,1.57,1.19H105.7c2.31,0,7.1-9.21,7.1-10.87,0-.65-.55-1.11-1.57-1.11H95.38c-.46,0-.65.28-.74.74a19.51,19.51,0,0,0,0,5.71c.09.56-.37.74-.83.56l-6.91-2.12a.9.9,0,0,1-.56-.93V320.64a.68.68,0,0,1,.74-.73h21.11c4.24,0,13.92,12.81,13.92,16.22C122.11,340,113.35,354.2,109.21,354.2Z" transform="translate(-55 -245.63)"/><path class="cls-2" d="M120.82,310.41a1.12,1.12,0,0,1-1.11,1.11H64.13a2,2,0,0,1-1.66-.55l-5.9-7.47c-.37-.55-.83-.92-.74-1.66.18-1.75.65-8.3.65-14.29a12.66,12.66,0,0,0-.56-4.06c-.37-.55.19-.55,1.29-.18,1.85.65,4.24,1,6.18,1.66,1.11.37,2.4,2.49,2.4,4.7a23.65,23.65,0,0,1-1.29,9.22c-.19.46,0,.92.27.92H83.85c.74,0,1-.28,1-1.47a89.22,89.22,0,0,0-1.2-11.07c-.09-.55.28-.92.92-.73l7,2.3a.9.9,0,0,1,.74.92c0,2.12-1,7.29-1,9.41a.59.59,0,0,0,.65.64c3,0,13.73.09,16.41.28,1.56.09,4,.46,4-1.2a134.49,134.49,0,0,0-1.11-16.13c-.09-.65.28-1.11,1.11-.65a51.46,51.46,0,0,0,8,3c.55.19.55.46.55.93C120.91,290.13,120.64,305.62,120.82,310.41Z" transform="translate(-55 -245.63)"/><path class="cls-2" d="M120.82,267.45c.09,1.3-.74,1.3-1.75,1.3-11.8,0-41.76.27-53.56.27a1.11,1.11,0,0,0-1.2,1.2c.09,5.16.46,7.19,1.2,9.68.18.65-.18.65-1.29.28l-6.64-2.12c-1-.28-1-1.2-1.2-2.68-.37-2.76-.27-5.07-.18-11.89.09-8.39.64-14-.09-17.33-.19-.65.18-.65,1.29-.28L64.13,248c1,.37,1,1.2,1,2.68a25.68,25.68,0,0,1-.83,5.71c-.18.83.46.92,1.29.92,10.88,0,42.68-.09,53.47-.27,1,.09,1.93,0,1.84,1.29A77.09,77.09,0,0,0,120.82,267.45Z" transform="translate(-55 -245.63)"/></svg>